# xmcd
#
# Track frame offsets:
#	150
#	15498
#	27978
#	43940
#	56680
#	72500
#	84648
#	95315
#	106055
#	116218
#	126560
#	138090
#	148848
#	159928
#	165668
#	179525
#	188295
#
# Disc length: 2686
#
# Revision: 3
# Processed by: cddbd v1.5.1PL0 Copyright (c) Steve Scherf et al.
# Submitted via: CDex 1.40Beta8
# Normalized: r2:TDELIM( - )
#
DISCID=e90a7c11
DTITLE=Various Artist - The Best Of Country Music Vol 3
DYEAR=1900
DGENRE=Country
TTITLE0=Bobby Bare - For The Good Times
TTITLE1=Johnny Cash - I Walk The Line
TTITLE2=Bill Anderson - We May Never Pass This Way Again
TTITLE3=Sanford Clark - They Call Me Country
TTITLE4=Roy Clark - Me And Bobby Mcgee
TTITLE5=Roy Clark - The Most Beautiful Girl In The World
TTITLE6=Dave Dudley - Six Days On The Road
TTITLE7=Ferlin Husky - Deadly Weapon
TTITLE8=George Jones - Heartbreak Hotel
TTITLE9=Johnny Cash - The Ways Of A Woman In Love
TTITLE10=Hank Locklin - Send Me The Pillow You Dream On
TTITLE11=Billie Jo Spears - I'm So Lonesome I Could Cry
TTITLE12=Patsy Cline - I Can't Forget
TTITLE13=Red Sovine - Are You Mine
TTITLE14=Jo Ann Steele - Loving You Lovin' Me
TTITLE15=Waylon Jennings with Buddy Holly and King Curtis - Abilene
TTITLE16=Hank Thompson - Wild Side Of Life
EXTD=ID3G: 2
EXTT0=
EXTT1=
EXTT2=
EXTT3=
EXTT4=
EXTT5=
EXTT6=
EXTT7=
EXTT8=
EXTT9=
EXTT10=
EXTT11=
EXTT12=
EXTT13=
EXTT14=
EXTT15=
EXTT16=
PLAYORDER=
